<svg width="1084" height="1083" viewBox="0 0 1084 1083" fill="none" xmlns="http://www.w3.org/2000/svg">
<path d="M551.569 18.1317C545.604 14.8815 538.396 14.8814 532.431 18.1317L68.0453 271.157C68.0453 271.157 68.0453 271.157 68.0452 271.157C61.6154 274.661 57.6142 281.398 57.6142 288.72V794.28C57.6142 801.602 61.6156 808.339 68.0452 811.843L532.431 1064.87C538.396 1068.12 545.604 1068.12 551.569 1064.87L1015.95 811.843C1022.38 808.339 1026.39 801.602 1026.39 794.28V288.72C1026.39 281.397 1022.38 274.661 1015.95 271.157L551.569 18.1317Z" stroke="#50BFE8" stroke-width="30" stroke-linejoin="round"/>
<path d="M551.694 100.223C545.663 96.8809 538.337 96.8809 532.306 100.223L149.327 312.452C142.967 315.976 139.021 322.675 139.021 329.946V754.054C139.021 761.325 142.967 768.024 149.327 771.548L532.306 983.777C538.337 987.119 545.663 987.119 551.694 983.777L934.673 771.548C941.033 768.024 944.979 761.325 944.979 754.054V329.946C944.979 322.675 941.033 315.976 934.674 312.452L551.694 100.223Z" stroke="#50BFE8" stroke-width="30" stroke-linejoin="round"/>
<mask id="path-3-outside-1_5_110" maskUnits="userSpaceOnUse" x="275.467" y="336.593" width="529" height="471" fill="black">
<rect fill="white" x="275.467" y="336.593" width="529" height="471"/>
<path fill-rule="evenodd" clip-rule="evenodd" d="M665.929 420.677C665.929 390.807 690.143 366.593 720.013 366.593C749.883 366.593 774.098 390.807 774.098 420.677V693.197C774.098 697.627 773.565 701.932 772.56 706.053C775.84 752.891 713.515 788.398 669.287 752.712L414.256 546.941V723.357C414.256 753.227 390.041 777.441 360.171 777.441C330.301 777.441 306.087 753.227 306.087 723.357V441.261C305.234 435.696 305.262 430.038 306.163 424.488C307.666 395.962 331.272 373.295 360.171 373.295C367.034 373.295 373.598 374.573 379.639 376.904C389.65 378.822 399.226 383.072 407.376 389.614L665.929 597.175V420.677Z"/>
</mask>
<path d="M772.56 706.053L743.414 698.947L742.307 703.487L742.634 708.149L772.56 706.053ZM669.287 752.712L688.125 729.364H688.125L669.287 752.712ZM414.256 546.941L433.094 523.593L384.256 484.188V546.941H414.256ZM306.087 441.261H336.087V438.975L335.741 436.715L306.087 441.261ZM306.163 424.488L335.776 429.293L336.036 427.689L336.121 426.066L306.163 424.488ZM379.639 376.904L368.837 404.892L371.349 405.862L373.994 406.369L379.639 376.904ZM407.376 389.614L388.596 413.009L407.376 389.614ZM665.929 597.175L647.148 620.569L695.929 659.729V597.175H665.929ZM720.013 336.593C673.575 336.593 635.929 374.239 635.929 420.677H695.929C695.929 407.376 706.712 396.593 720.013 396.593V336.593ZM804.098 420.677C804.098 374.239 766.452 336.593 720.013 336.593V396.593C733.315 396.593 744.098 407.376 744.098 420.677H804.098ZM804.098 693.197V420.677H744.098V693.197H804.098ZM801.707 713.159C803.274 706.73 804.098 700.039 804.098 693.197H744.098C744.098 695.214 743.856 697.134 743.414 698.947L801.707 713.159ZM742.634 708.149C743.246 716.888 737.707 727.351 725.405 733.455C713.91 739.159 700.054 738.989 688.125 729.364L650.449 776.06C682.748 802.121 722.169 802.04 752.073 787.203C781.171 772.765 805.155 742.056 802.487 703.957L742.634 708.149ZM688.125 729.364L433.094 523.593L395.418 570.288L650.449 776.06L688.125 729.364ZM444.256 723.357V546.941H384.256V723.357H444.256ZM360.171 807.441C406.61 807.441 444.256 769.796 444.256 723.357H384.256C384.256 736.659 373.473 747.441 360.171 747.441V807.441ZM276.087 723.357C276.087 769.796 313.733 807.441 360.171 807.441V747.441C346.87 747.441 336.087 736.659 336.087 723.357H276.087ZM276.087 441.261V723.357H336.087V441.261H276.087ZM335.741 436.715C335.364 434.261 335.375 431.759 335.776 429.293L276.55 419.683C275.149 428.317 275.103 437.13 276.433 445.807L335.741 436.715ZM360.171 343.295C315.232 343.295 278.542 378.535 276.205 422.909L336.121 426.066C336.789 413.389 347.311 403.295 360.171 403.295V343.295ZM390.441 348.917C381.009 345.276 370.786 343.295 360.171 343.295V403.295C363.282 403.295 366.188 403.87 368.837 404.892L390.441 348.917ZM373.994 406.369C379.453 407.415 384.463 409.691 388.596 413.009L426.157 366.22C413.99 356.453 399.846 350.23 385.284 347.44L373.994 406.369ZM388.596 413.009L647.148 620.569L684.709 573.78L426.157 366.22L388.596 413.009ZM635.929 420.677V597.175H695.929V420.677H635.929Z" fill="#50BFE8" mask="url(#path-3-outside-1_5_110)"/>
<path d="M401.928 449.5C401.928 464.264 389.765 476.5 374.428 476.5C359.092 476.5 346.928 464.264 346.928 449.5C346.928 434.736 359.092 422.5 374.428 422.5C389.765 422.5 401.928 434.736 401.928 449.5Z" fill="white" stroke="#70D3BA" stroke-width="25"/>
<path d="M719.928 666.5C719.928 681.562 707.914 693.5 693.428 693.5C678.942 693.5 666.928 681.562 666.928 666.5C666.928 651.438 678.942 639.5 693.428 639.5C707.914 639.5 719.928 651.438 719.928 666.5Z" fill="white" stroke="#70D3BA" stroke-width="25"/>
<ellipse cx="363.929" cy="745.286" rx="90.9291" ry="84.7139" fill="#70D3BA"/>
<path d="M353.546 709.08C357.406 706.913 360.842 704.836 363.655 703.067L370.98 707.239L394.813 720.812L406.81 746.894C403.506 751.261 400.745 755.707 398.494 760.633C396.097 765.878 394.452 771.287 393.19 777.165L363.077 788.397L332.348 776.935C330.601 770.651 328.641 765.232 326.192 760.092C323.806 755.083 321.086 750.617 318.008 746.132L323.977 722.379C334.95 718.883 345.525 713.582 353.546 709.08Z" fill="#70D3BA" stroke="white" stroke-width="30"/>
<path d="M792.928 349.207C792.928 369.573 782.748 387.621 767.286 401.037C751.59 414.656 732.17 421.952 716.95 421.952C686.383 421.952 648.179 394.125 640.979 347.965C641.266 326.509 648.973 309.601 661.752 296.931C674.777 284.019 694.001 274.636 718.306 270.512C759.189 271.26 792.928 305.74 792.928 349.207Z" fill="white" stroke="#70D3BA" stroke-width="35"/>
<path d="M753.164 346.4C753.164 363.189 738.896 376.799 721.296 376.799C703.696 376.799 689.428 363.189 689.428 346.4C689.428 329.61 703.696 316 721.296 316C738.896 316 753.164 329.61 753.164 346.4Z" fill="#70D3BA"/>
<path d="M543 115V469" stroke="#50BFE8" stroke-width="30" stroke-linecap="round"/>
<path d="M538 666L540 972" stroke="#50BFE8" stroke-width="30" stroke-linecap="round"/>
<path d="M582.5 273.5C582.5 292.12 566.219 308.5 544.5 308.5C522.781 308.5 506.5 292.12 506.5 273.5C506.5 254.88 522.781 238.5 544.5 238.5C566.219 238.5 582.5 254.88 582.5 273.5Z" fill="white" stroke="#70D3BA" stroke-width="25"/>
<path d="M577.5 824.5C577.5 843.12 561.219 859.5 539.5 859.5C517.781 859.5 501.5 843.12 501.5 824.5C501.5 805.88 517.781 789.5 539.5 789.5C561.219 789.5 577.5 805.88 577.5 824.5Z" fill="white" stroke="#70D3BA" stroke-width="25"/>
<path d="M229 395L229 645" stroke="#50BFE8" stroke-width="30" stroke-linecap="round"/>
<path d="M854.613 707.004L855.865 457.007" stroke="#50BFE8" stroke-width="30" stroke-linecap="round"/>
<path d="M233.538 381.241C225.596 378.883 217.247 383.41 214.889 391.351C212.532 399.293 217.058 407.642 225 410L233.538 381.241ZM225 410L289 429L297.538 400.241L233.538 381.241L225 410Z" fill="#50BFE8"/>
<path d="M850.006 720.741C857.936 723.138 866.308 718.653 868.705 710.723C871.103 702.794 866.618 694.422 858.688 692.024L850.006 720.741ZM858.688 692.024L794.784 672.704L786.102 701.42L850.006 720.741L858.688 692.024Z" fill="#50BFE8"/>
<path d="M224.495 642.929C216.718 645.786 212.73 654.405 215.586 662.181C218.443 669.958 227.062 673.946 234.838 671.09L224.495 642.929ZM234.838 671.09L297.505 648.071L287.161 619.91L224.495 642.929L234.838 671.09Z" fill="#50BFE8"/>
<path d="M860.36 459.101C868.15 456.283 872.182 447.684 869.364 439.893C866.547 432.103 857.947 428.071 850.157 430.889L860.36 459.101ZM850.157 430.889L787.376 453.593L797.578 481.805L860.36 459.101L850.157 430.889Z" fill="#50BFE8"/>
<path d="M248.5 393.5C248.5 412.955 232.929 428.5 214 428.5C195.071 428.5 179.5 412.955 179.5 393.5C179.5 374.045 195.071 358.5 214 358.5C232.929 358.5 248.5 374.045 248.5 393.5Z" fill="white" stroke="#70D3BA" stroke-width="25"/>
<path d="M835.106 708.406C835.203 688.952 850.851 673.485 869.781 673.58C888.71 673.674 904.202 689.297 904.105 708.752C904.008 728.207 888.359 743.673 869.43 743.579C850.501 743.484 835.008 727.861 835.106 708.406Z" fill="white" stroke="#70D3BA" stroke-width="25"/>
<path d="M248.5 662.5C248.5 678.728 233.982 693.5 214 693.5C194.018 693.5 179.5 678.728 179.5 662.5C179.5 646.272 194.018 631.5 214 631.5C233.982 631.5 248.5 646.272 248.5 662.5Z" fill="white" stroke="#70D3BA" stroke-width="25"/>
<path d="M836.453 439.41C836.534 423.182 851.125 408.483 871.107 408.583C891.09 408.683 905.533 423.528 905.452 439.755C905.371 455.983 890.779 470.682 870.797 470.582C850.815 470.482 836.371 455.637 836.453 439.41Z" fill="white" stroke="#70D3BA" stroke-width="25"/>
</svg>
